<svg version="1.1" id="Layer_1" xmlns="http://www.w3.org/2000/svg" xmlns:xlink="http://www.w3.org/1999/xlink" x="0px" y="0px"
	 width="100%" viewBox="0 0 448 362" enable-background="new 0 0 448 362" xml:space="preserve">
<g fill="#000000">
  <path d="M290.223175,203.891083 C289.936584,198.684891 289.629730,193.949783 289.322906,189.214676 C295.119293,199.536743 296.121643,210.511276 294.581421,221.688354 C292.003326,240.397034 282.784210,255.400284 266.824066,265.316895 C249.909988,275.826202 232.315903,285.248749 214.936798,294.999786 C197.090256,305.013062 179.149246,314.858215 161.231583,324.744263 C160.066254,325.387207 158.746841,325.750885 157.325653,326.313141 C158.610764,319.681702 160.090866,313.757477 160.796494,307.742401 C161.201736,304.287842 162.664566,302.485657 165.596298,300.981812 C190.144608,288.389435 214.858612,276.092133 239.045380,262.835052 C250.809494,256.386993 261.993164,248.650452 272.643372,240.461639 C284.206573,231.570831 289.559906,218.934219 290.223175,203.891083 z"/>
  <path d="M261.063599,66.118622 C279.198181,56.285587 297.004944,46.629642 314.520081,37.131836 C313.396423,43.514565 312.355652,50.697433 310.727081,57.744461 C310.340942,59.415295 308.221558,61.089546 306.496124,61.985489 C285.092804,73.099312 263.392273,83.661957 242.235916,95.222412 C228.560745,102.694939 215.103729,110.820824 202.536270,120.004959 C185.052429,132.781906 179.127441,150.786697 182.924759,172.033783 C183.141663,173.247498 183.195053,174.490433 183.324539,175.719772 C182.792633,175.844681 182.260727,175.969574 181.728821,176.094467 C180.236923,170.179520 178.003464,164.340805 177.386047,158.335922 C175.136078,136.452866 181.363922,117.509300 198.501083,102.949234 C213.217926,90.445534 230.480652,82.040077 247.388260,73.089790 C251.800003,70.754372 256.284637,68.556664 261.063599,66.118622 z"/>
  <path d="M172.394745,286.325073 C169.433167,287.845978 166.792252,289.186096 163.404297,290.905334 C163.980621,285.779785 164.225418,281.216949 165.152222,276.797150 C165.434555,275.450684 167.433563,274.188080 168.920380,273.412170 C187.197998,263.873993 205.732391,254.805222 223.762177,244.823532 C234.046448,239.129929 244.035492,232.631546 253.266266,225.363617 C271.845276,210.735321 278.004028,188.160309 271.107666,165.538620 C272.148712,166.779068 273.377228,167.906586 274.202789,169.276855 C287.320709,191.049652 283.069855,219.553680 262.607239,234.810638 C247.616211,245.987976 231.105637,255.228897 214.812134,264.526428 C201.124786,272.336792 186.773026,278.982819 172.394745,286.325073 z"/>
  <path d="M234.501068,126.439911 C230.100739,129.487579 225.873291,132.161942 221.905731,135.178177 C200.639816,151.344849 194.197372,171.396408 201.000198,198.294785 C200.058243,196.998276 199.021057,195.759918 198.188629,194.396561 C185.564835,173.720627 188.128906,143.373856 210.325409,127.281227 C221.194397,119.401131 232.583801,112.087761 244.345123,105.623047 C264.729431,94.418610 285.584534,84.070419 306.251923,73.382004 C306.925751,73.033531 307.706177,72.891251 308.475098,72.640388 C308.599609,73.240776 308.698364,73.550117 308.724182,73.865425 C309.646545,85.128342 303.382080,90.301811 293.737671,94.925560 C273.694763,104.534607 254.397598,115.699173 234.501068,126.439911 z"/>
  <path d="M259.978546,166.348694 C260.170898,164.919113 260.363556,163.939041 260.556183,162.958969 C261.157684,162.925201 261.759186,162.891418 262.360687,162.857651 C263.050964,168.296600 264.355865,173.740265 264.314270,179.173615 C264.197510,194.423187 259.178528,208.075211 246.528687,217.073761 C232.478836,227.068192 217.689392,236.089401 202.803284,244.820480 C191.235001,251.605576 179.024078,257.294983 166.437485,263.813873 C166.840057,259.395599 166.786987,255.731842 167.651001,252.298889 C168.078674,250.599625 169.931183,248.847443 171.588104,247.932190 C189.770538,237.888504 208.121841,228.148315 226.237900,217.988052 C231.425797,215.078476 236.164688,211.281448 240.828568,207.541077 C253.822083,197.120438 260.875610,183.800323 259.978546,166.348694 z"/>
  <path d="M261.116669,136.005524 C252.917084,141.155869 244.948547,145.994217 237.188202,151.146118 C219.677841,162.770844 210.764008,179.094040 210.905289,200.220383 C210.411636,200.252472 209.917969,200.284561 209.424301,200.316666 C208.964600,193.339569 207.729126,186.308228 208.212524,179.397110 C209.118149,166.449692 214.031631,154.684708 224.706802,146.963150 C238.019058,137.334137 251.940948,128.460739 266.110748,120.130554 C278.678711,112.742035 291.945770,106.542717 305.672913,99.419556 C305.268127,104.053772 305.228943,107.968437 304.439423,111.725410 C304.149719,113.104057 302.266205,114.452995 300.799713,115.231384 C287.720001,122.173904 274.570892,128.985611 261.116669,136.005524 z"/>
</g>
</svg>